<?xml version="1.0" standalone="no"?><!DOCTYPE svg PUBLIC "-//W3C//DTD SVG 1.1//EN" "http://www.w3.org/Graphics/SVG/1.1/DTD/svg11.dtd"><svg t="1534059277812" class="icon" style="" viewBox="0 0 1024 1024" version="1.1" xmlns="http://www.w3.org/2000/svg" p-id="2206" xmlns:xlink="http://www.w3.org/1999/xlink" width="128" height="128"><defs><style type="text/css"></style></defs><path d="M449.160301 149.075247c-73.013921-0.051165-177.794335-0.010233-250.786767 0-29.348422 0-41.797965 17.58347-41.797965 41.797965-0.081864 71.421656 0.265036 189.29425 0.265036 245.255797 0 29.347398 15.183817 47.327912 41.531905 47.327912 39.838334 0.163729 216.233809 0.071631 250.786767 0 29.613458-0.081864 41.777499-11.113105 41.797965-41.797965 0-24.746614 0-225.856981 0-250.786767C490.958266 167.771051 473.426985 149.086503 449.160301 149.075247zM406.505829 323.69631c-2.520403 8.785084-8.673543 13.57211-17.817808 13.58132-21.695115 0.061398-43.389206 0.030699-65.085344 0.030699-21.694091 0-43.389206 0.102331-65.084321-0.051165-13.459546-0.091074-21.654182-13.724583-17.286712-28.337395 2.551102-8.510838 8.602935-13.255908 17.521049-13.317307 16.603143-0.101307 33.19503-0.030699 49.78794-0.030699 26.63359 0 53.267181-0.070608 79.901795 0.030699C402.443303 295.653627 410.791435 308.767296 406.505829 323.69631z" p-id="2207"></path><path d="M825.340963 149.075247c-73.013921-0.051165-177.793312-0.010233-250.78779 0-24.551162 0-41.796942 15.195074-41.796942 41.797965 0 25.511024 0 220.804918 0 250.786767 0 22.918989 18.193361 41.705867 41.796942 41.797965 35.359322 0.143263 211.744565 0.081864 250.78779 0 22.001083 0 41.797965-16.868179 41.797965-41.797965 0-26.603915 0-222.448348 0-250.786767C867.138928 164.341952 849.851193 149.075247 825.340963 149.075247zM762.642992 337.166089c-24.735357 0.183172-41.797965 0-41.797965 0s0.060375 27.909653 0 41.797965c-0.021489 8.326643-10.1645 21.030989-20.817118 21.030989-9.347902 0-20.806885-9.266038-20.98187-21.030989-0.366344-25.297153 0-41.797965 0-41.797965s-16.416901 0.428765-41.796942 0c-8.03193 0-21.042245-9.837042-21.042245-20.979824 0-8.960069 9.92914-20.817118 21.042245-20.817118 24.399713 0 41.796942 0 41.796942 0s-0.346901-16.73515 0-41.797965c0.174985-11.806907 9.79611-21.205974 20.98187-21.205974 9.449209 0 20.817118 8.225335 20.817118 21.205974 0.162706 24.39869 0 41.797965 0 41.797965s17.042141-0.326435 41.797965 0c12.204973 0.162706 21.204951 11.795651 21.204951 20.817118C783.847943 325.69585 770.338255 337.114924 762.642992 337.166089z" p-id="2208"></path><path d="M449.160301 525.255908c-73.013921-0.051165-177.794335-0.010233-250.786767 0-31.338752 0.010233-41.757033 9.326413-41.797965 41.797965-0.081864 71.28965 0 213.745129 0 250.785743 0 25.787316 19.898189 41.800012 41.797965 41.800012 36.419468 0.143263 213.397205 0.080841 250.786767 0 29.613458-0.082888 41.777499-11.174504 41.797965-41.800012 0-24.459065 0-214.713176 0-250.785743C490.958266 543.991622 473.426985 525.266142 449.160301 525.255908zM399.362128 768.29727c-9.734712 9.470699-23.144116 9.68457-32.81743 0.193405-12.684904-12.470009-25.185612-25.112957-37.654598-37.787628-1.551332-1.560542-2.449795-3.774977-3.939729-6.112208-15.490809 15.592117-29.398564 29.714765-43.440371 43.664475-8.204869 8.153704-17.684778 9.460466-27.369348 4.203742-9.664104-5.234211-15.397688-15.878642-12.745279-26.103518 1.194198-4.64274 4.285606-9.274224 7.66354-12.805654 13.296841-13.847379 27.052123-27.236318 41.073464-41.237193-1.795902-1.889023-3.244904-3.530406-4.796236-5.061272-12.81691-12.909008-25.797549-25.664519-38.45073-38.727023-7.623631-7.877411-8.225335-18.909675-2.142803-28.14399 6.29538-9.591449 17.847483-14.286378 27.571962-10.459213 3.837398 1.51961 7.388271 4.325515 10.357905 7.264451 13.684674 13.481036 27.103288 27.216875 41.84913 42.135656 3.898797-4.480035 7.163143-8.632611 10.827603-12.398378 9.419534-9.643638 19.031449-19.123546 28.562523-28.674063 12.102642-12.102642 25.184589-12.828167 35.858696-2.001587 10.378371 10.510378 9.632381 23.889083-2.02103 35.552727-11.836583 11.888771-23.663956 23.74582-35.470863 35.624359-1.408069 1.437745-2.734274 2.928702-4.622274 4.968152 7.602142 7.540743 14.989389 14.817474 22.317285 22.144346 6.80601 6.766101 13.70514 13.491269 20.348444 20.419052C409.730267 744.79602 409.270802 758.676146 399.362128 768.29727z" p-id="2209"></path><path d="M867.138928 567.053873c0-20.837584-22.327518-41.797965-41.797965-41.797965-73.013921-0.051165-177.793312-0.010233-250.78779 0-21.582551 0-41.796942 22.103414-41.796942 41.797965 0 44.205804 0 216.581734 0 250.785743 0 18.379603 20.817118 41.800012 41.796942 41.800012 35.043121 0.143263 212.019835 0.080841 250.78779 0 29.603225-0.082888 41.85834-19.87977 41.868573-50.513464C867.281167 736.826512 867.219769 639.362736 867.138928 567.053873zM762.642992 755.144716c-22.939455 0-105.800651-0.030699-123.944893-0.030699-16.591887 0-22.346961-9.68457-22.346961-20.868283 0-11.746532 10.204409-20.900006 20.898982-20.900006 41.410132 0 83.983763 0 125.392872 0 10.408047 0 20.898982 8.491395 20.898982 20.900006C783.541975 745.562477 770.868327 755.144716 762.642992 755.144716zM762.642992 671.547763c-46.961568 0.460488-62.156642-0.039909-125.392872 0-8.256034 0-20.898982-8.572236-20.898982-20.898982 0-11.571546 10.224876-20.776186 18.040888-20.754696 25.390273 0 97.16804-0.143263 128.250966-0.143263 9.917884 0.224104 20.836561 10.79588 20.898982 20.897959C783.614629 660.895145 772.685719 671.436222 762.642992 671.547763z" p-id="2210"></path></svg>
